<svg xmlns="http://www.w3.org/2000/svg" viewBox="-197 320.9 200 200"  fill="#fff" xmlns:v="https://vecta.io/nano"><path d="M-759 1073.4h23.8L-778 1121l-42.8-47.6h23.8V1031h38.1l-.1 42.4zm14.3 38.1v14.3h-66.6v-14.3h-9.5v23.8h85.7v-23.8h-9.6zM-97 320.9c55.2 0 100 44.8 100 100s-44.8 100-100 100-100-44.8-100-100 44.8-100 100-100m21.3 133.3h-42.6c4.6 20.5 12 34.3 21.3 47.9 10-14.5 17-28.4 21.3-47.9m-59.6 0h-38.1c10.3 23.5 30.9 41.4 56.3 47.6-8.7-14.4-14.9-30.4-18.2-47.6m114.7 0h-38.1c-3.3 16.6-9.1 32.4-18.1 47.4 25.1-6.3 46-24.1 56.2-47.4m-116.7-50h-41.4c-2.2 10.9-2.2 22.4 0 33.3h41c-1-11-.9-22.2.4-33.3m63.8 0h-47.1c-1.4 11-1.5 22.3-.4 33.3h48c1.1-11 .9-22.2-.5-33.3m58.2 0h-41.4c1.2 11.1 1.4 22.3.4 33.3h41c2.1-10.7 2.2-22 0-33.3m-101.3-64.4c-25.6 6.1-46.4 24.1-56.8 47.7h38.8c3.6-17 9.8-33.2 18-47.7m19.6-.4c-9.1 14.8-15.9 28.8-20.5 48.1h41.1c-4.5-18.7-11.2-32.8-20.6-48.1m19.7.6c8.4 15.1 14.4 31.3 17.9 47.6h38.8C-30.9 364.1-52 346.2-77.3 340"/></svg>