<svg xmlns="http://www.w3.org/2000/svg" viewBox="-197 320.9 200 200"  fill="#fff" xmlns:v="https://vecta.io/nano"><path d="M-880.9 420.9v46.8h46.4v12h-46.4v47.2H-894v-47.2h-46.4v-12h46.4v-46.8h13.1zm290 37c-.4 0-.6.1-1 .1h-92.2c-.4 0-.6 0-1-.1v-7.8h94.1l.1 7.8zm0 19.4c-.4 0-.6.1-1 .1h-92.2c-.4 0-.6 0-1-.1v-7.8h94.1l.1 7.8zm-94.2 12.3c.4 0 .7-.1 1.1-.1h91.9c.4 0 .7.1 1.1.1v7.8h-94.1v-7.8zm46.9 35.6c-.2-.3-.4-.6-.6-.8l-14.1-14.2c-.2-.2-.4-.5-.8-.9h31.4c-.3.3-.5.6-.7.8l-14.2 14.2c-.2.2-.4.5-.6.8-.1.1-.3.1-.4.1zm-15.2-87.1l15.4-15.5 15.3 15.5h-30.7zm595.3-26.9h-29.2V382h-19.5v29.2H-136v19.5h29.2v29.2h19.5v-29.2h29.2v-19.5z"/></svg>