<svg xmlns="http://www.w3.org/2000/svg" viewBox="0 0 200 200"  fill="#fff" xmlns:v="https://vecta.io/nano"><path d="M-759 1073.4h23.8L-778 1121l-42.8-47.6h23.8V1031h38.1l-.1 42.4zm14.3 38.1v14.3h-66.6v-14.3h-9.5v23.8h85.7v-23.8h-9.6z"/><path d="M32.4 158h-7c-6.6 0-12.9-2.6-17.6-7.3s-7.3-11-7.3-17.6v-24.9C.5 48.8 45.1.5 100 .5s99.5 48.3 99.5 107.8v24.9c0 6.6-2.6 12.9-7.3 17.6s-11 7.3-17.6 7.3h-7c-22.3 38.4-57.2 41.4-67.6 41.4s-45.3-3.1-67.6-41.5zm133.9-48.7c-5 2-10.5-1.5-10.5-6.6 0-2.5-.2-5.1-.4-7.6-14.6-2.1-30-16-30.7-30.9-10.9 16.6-37.5 34.6-58.4 34.6 9-5.8 15.2-23 15.8-29.1-4.8 9.1-24 26-37.7 28.9l-.1 4.1c0 5.1-5.5 8.6-10.5 6.6v31.3c2.4 2.1 5.2 3.8 8.6 4.9 1.9.6 3.4 1.9 4.3 3.5 18.3 33.5 45 33.9 53.4 33.9 7.7 0 30.8-.3 48.7-26.3-8.9 3.6-18.8 5-31.2 5.4-3.1 5-9.8 8.4-17.6 8.4-10.7 0-19.3-6.5-19.3-14.5s8.7-14.5 19.3-14.5c7.7 0 14.4 3.4 17.5 8.3 15.7-.2 35.9-2.8 48.8-21.9 0 .1 0-18.5 0-18.5zm-91.2-5.2c5.7 0 10.3 5.6 10.3 12.4S80.8 129 75.1 129s-10.3-5.6-10.3-12.4 4.6-12.5 10.3-12.5zm49.8 0c5.7 0 10.3 5.6 10.3 12.4s-4.6 12.4-10.3 12.4-10.3-5.6-10.3-12.4 4.6-12.4 10.3-12.4zm45.4-12.4h11.2c-7.1-42.4-40.9-74.6-81.5-74.6S25.6 49.3 18.5 91.7h11.2c4.3-33.3 28.3-64 70.3-64s66 30.7 70.3 64z" fill-rule="evenodd"/></svg>